<svg width="16" height="44" viewBox="0 0 16 44" fill="none" xmlns="http://www.w3.org/2000/svg">
  <path d="M15.504 25.696L11.856 22.048C12.432 21.184 12.768 20.144 12.768 19.024C12.768 15.744 10.112 13.088 6.832 13.088C3.552 13.088 0.896 15.744 0.896 19.024C0.896 22.304 3.552 24.96 6.832 24.96C7.952 24.96 8.992 24.624 9.856 24.048L13.504 27.696C13.792 27.984 14.176 28.128 14.56 28.128C14.944 28.128 15.328 27.984 15.616 27.696C16.192 27.12 16.192 26.272 15.504 25.696ZM6.832 22.96C4.656 22.96 2.896 21.2 2.896 19.024C2.896 16.848 4.656 15.088 6.832 15.088C9.008 15.088 10.768 16.848 10.768 19.024C10.768 21.2 9.008 22.96 6.832 22.96Z" fill="currentColor"/>
</svg>
